Coordinates
version=1
nRows=5
nColumns=40
inDegrees=yes

Units are S.I. units (second, meters, Newtons, ...)
Angles are in degrees.

endheader
time	pelvis_tilt	pelvis_list	pelvis_rotation	pelvis_tx	pelvis_ty	pelvis_tz	hip_flexion_r	hip_adduction_r	hip_rotation_r	knee_angle_r	knee_angle_r_beta	ankle_angle_r	subtalar_angle_r	mtp_angle_r	hip_flexion_l	hip_adduction_l	hip_rotation_l	knee_angle_l	knee_angle_l_beta	ankle_angle_l	subtalar_angle_l	mtp_angle_l	lumbar_extension	lumbar_bending	lumbar_rotation	arm_flex_r	arm_add_r	arm_rot_r	elbow_flex_r	pro_sup_r	wrist_flex_r	wrist_dev_r	arm_flex_l	arm_add_l	arm_rot_l	elbow_flex_l	pro_sup_l	wrist_flex_l	wrist_dev_l
     20.71414286	     -4.46610144	     -7.22302627	      3.59385062	      1.02984158	      0.93163268	      0.50255260	      7.36891569	      7.12537544	    -20.33096303	      9.61051119	      9.61051119	      9.02592149	      6.36071297	     -3.77466228	     38.60884501	    -14.07801837	      3.95917562	     52.73421439	     52.73421439	      6.80880392	    -17.77319484	     12.72085166	    -11.94217611	      6.30912288	      3.52283613	     27.29343218	    -17.94285960	      0.87670661	     68.15139277	     44.92652088	      0.00000000	      0.00000000	     -1.99630776	     -7.61894833	     -1.10746787	     35.99495465	     46.86632106	      0.00000000	      0.00000000
     20.72578571	     -4.63463929	     -7.16258631	      3.51302353	      1.02837450	      0.93121085	      0.50279293	      6.97610314	      7.12797212	    -20.18918563	      9.43382717	      9.43382717	      9.36192773	      6.56797877	     -3.87354400	     38.91255946	    -13.75893384	      3.91489667	     49.20584824	     49.20584824	      6.80848578	    -17.20061793	     12.80661955	    -11.94475110	      6.23506628	      3.82303615	     29.74161536	    -17.95276264	      0.93151884	     69.76718959	     44.88582067	      0.00000000	      0.00000000	     -3.19862063	     -7.54497182	     -0.95808448	     34.47410088	     46.81630054	      0.00000000	      0.00000000
     20.73742857	     -4.81251593	     -7.21722858	      3.47087228	      1.02699524	      0.93061567	      0.50283825	      6.55975833	      7.22852906	    -20.33429350	      9.20541021	      9.20541021	      9.72248763	      7.13289422	     -3.89166057	     39.09028292	    -13.52152371	      4.00628809	     45.45368995	     45.45368995	      6.17222709	    -16.57039698	     11.27028240	    -11.92128577	      6.36918157	      4.16934200	     31.85554487	    -18.49315632	      2.09945020	     72.41099243	     44.79458440	      0.00000000	      0.00000000	     -3.61340753	     -7.32140389	     -0.53771967	     30.93427673	     46.70619172	      0.00000000	      0.00000000
     20.74907143	     -5.01705676	     -7.18653111	      3.36236285	      1.02570812	      0.92993244	      0.50287034	      6.17948298	      7.25706790	    -20.13124765	      9.00504960	      9.00504960	     10.09114501	      7.26850285	     -4.00739047	     39.18526090	    -13.22837042	      4.10510595	     41.75774971	     41.75774971	      6.25124920	    -15.42838695	     11.50015997	    -11.85014533	      6.30191226	      4.43630834	     34.17491674	    -18.30853536	      1.90163588	     73.97047702	     44.76439513	      0.00000000	      0.00000000	     -4.96964323	     -7.31506782	     -0.44161034	     30.16229036	     46.66193377	      0.00000000	      0.00000000
     20.76071429	     -5.17202613	     -7.25509336	      3.30380937	      1.02464290	      0.92917258	      0.50270887	      5.63721762	      7.41353840	    -20.09769633	      8.61789739	      8.61789739	     10.42940702	      7.64970968	     -4.07952567	     39.14927825	    -13.00468641	      4.32074013	     38.08770779	     38.08770779	      6.29166483	    -14.08115132	     11.34477199	    -11.87038738	      6.42505075	      4.29344166	     36.45859821	    -17.82580249	      2.16298719	     76.39531691	     44.69622021	      0.00000000	      0.00000000	     -6.43189967	     -7.33215790	     -0.17550816	     29.15705382	     46.58198899	      0.00000000	      0.00000000
